<?xml version="1.0" encoding="utf-8"?>
<!-- Generator: Adobe Illustrator 25.0.0, SVG Export Plug-In . SVG Version: 6.00 Build 0)  -->
<svg version="1.1" id="Layer_1" xmlns="http://www.w3.org/2000/svg" xmlns:xlink="http://www.w3.org/1999/xlink" x="0px" y="0px"
	 viewBox="0 0 1280 1254" style="enable-background:new 0 0 1280 1254;" xml:space="preserve">
<style type="text/css">
	.st0{fill:#7FFDF4;}
</style>
<g transform="translate(0.000000,1254.000000) scale(0.100000,-0.100000)">
	<path class="st0" d="M5873.9,11747c-75.4-30.7-128-71-228-171.8c-133.3-135-280.6-329.7-438.4-579.5
		c-35.1-55.2-64.9-102.6-66.6-103.5c-0.9-1.8-30.7,15.8-66.6,39.5c-84.2,57-190.3,116.6-363,202.5
		c-482.2,242-931.1,368.2-1358.1,384.9c-114.9,4.4-288.4-6.1-299.8-18.4c-2.6-1.8,6.1-90.3,18.4-195.5
		c62.2-531.3,70.1-655.8,64-983.7c-6.1-305.1-4.4-295.5-88.6-548C2872.8,9250,2644,8727.5,2005.7,7396.6
		C1298.2,5921.9,900.1,4938.2,801.9,4424.5l-13.2-66.6l37.7-80.7c51.7-109.6,155.2-292,219.2-387.5
		c32.4-47.3,97.3-122.7,163.9-188.5c133.3-134.1,267.4-227.1,460.3-320.9c172.7-83.3,334.9-137.6,636.5-213.9
		c247.2-62.2,249-63.1,310.4-53.5c99.1,15.8,193.8,67.5,279.7,152.6l72.8,71.9l10.5-98.2c28.1-274.4,143.8-423.5,354.2-459.4
		c82.4-13.2,193.8-6.1,244.6,16.7c21.9,9.6,57,32.4,78,50.9c50.9,46.5,320.9,455.9,595.3,903.9c187.6,306.9,304.2,456.8,530.4,683
		c290.2,290.2,588.3,503.2,986.3,704.9c128,64,392.8,184.1,407.7,184.1c14,0-33.3-250.7-77.2-408.6c-78-277-229.7-560.2-526-981.1
		c-97.3-137.6-326.1-438.4-393.7-516.4c-73.6-85-118.4-142-188.5-242c-28.9-41.2-90.3-127.1-137.6-191.1
		c-363-496.2-615.5-1050.3-723.3-1593c-39.5-196.4-70.1-442.8-71-562.9v-55.2h3939.2h3939.2l14.9,173.6
		c72.8,831.1,76.3,1799.1,10.5,2614.4c-147.3,1807-611.1,3278.1-1410.7,4471.4c-109.6,164-371.7,515.5-500.6,671.6
		c-385.8,465.5-760.1,817.1-1139.8,1067.9c-213,141.2-357.7,220.9-561.1,307.7c-405.9,172.7-921.5,253.4-1239.7,192.9
		c-36.8-7-71-13.2-76.3-13.2c-5.3,0-40.3,93.8-78,208.7c-119.2,364.7-192.9,552.3-264.8,666.3c-84.2,135.9-213,272.7-375.2,398.9
		c-135,104.3-342.8,234.1-375.2,234.1C5930.8,11767.1,5900.2,11757.5,5873.9,11747z M6986.4,9453.4c56.1-9.6,141.2-19.3,189.4-22.8
		c378.8-23.7,752.2-175.3,1157.3-468.2c356-257.8,766.3-661.9,1155.5-1138.9c479.6-586.5,856.6-1252.9,1108.2-1956.9
		c21-60.5,43.8-123.6,50-140.3c19.3-50.9,107-338.4,140.3-460.3c143.8-528.7,242.9-1135.4,285.8-1762.2
		c15.8-238.5,28.1-803.1,23.7-1153.8c-3.5-313.9-5.3-353.3-22.8-428.7c-34.2-151.7-96.4-251.6-186.7-299.8
		c-31.6-16.7-50.9-20.2-121-20.2c-70.1,0-89.4,3.5-121,20.2c-101.7,54.4-171.8,183.2-206.9,378.8c-23.7,132.4-31.6,251.6-31.6,485.7
		c-0.9,1836.8-334,3297.4-1006.5,4415.2c-216.6,359.5-447.1,653.2-777.7,989.8c-443.6,450.6-796.1,723.3-1188,920.6
		c-249,124.5-477.8,198.1-694.4,224.4c-45.6,5.3-53.5,9.6-86.8,46.5c-36.8,42.1-78,116.6-78,143.8c0,7.9,4.4,35.1,9.6,59.6
		c17.5,83.3,81.5,132.4,187.6,145.5c29.8,3.5,62.2,13.2,73.6,21.9C6871.6,9473.6,6862.8,9473.6,6986.4,9453.4z M4400.1,8666.1
		c178.9-35.9,255.1-127.1,228.8-275.3c-13.2-74.5-66.6-183.2-132.4-270.9c-64-85-270.9-292-380.5-381.4
		c-207.8-168.3-415.6-273.5-607.6-306.9c-156.9-27.2-238.5-14-300.7,48.2c-59.6,59.6-79.8,127.1-80.7,267.4
		c0,113.1,6.1,146.4,47.3,251.6c66.6,168.3,268.3,402.4,450.6,521.7c125.4,83.3,284.1,141.2,434.9,159.6
		C4142.3,8690.7,4315.9,8683.7,4400.1,8666.1z M1928.5,4952.3c0-1.8,7.9-45.6,17.5-98.2c21-115.7,21.9-164.8,3.5-240.2
		c-38.6-158.7-138.5-292-267.4-354.2c-85-42.1-150.8-58.7-253.4-64.9l-83.3-4.4l-21.9,55.2c-43,112.2-32.4,235,31.6,372.6
		c98.2,208.7,284.9,326.1,536.6,334.9C1911.9,4954,1928.5,4954,1928.5,4952.3z"/>
</g>
</svg>
