<svg xmlns="http://www.w3.org/2000/svg" version="1.1" xmlns:xlink="http://www.w3.org/1999/xlink" width="512" height="512" x="0" y="0" viewBox="0 0 510 510" style="enable-background:new 0 0 512 512" xml:space="preserve" fill-rule="evenodd" class=""><g><path d="M364.553 360.883c-22.402-1.716-44.324-11.141-61.459-28.276-38.083-38.083-38.083-99.815 0-137.898s99.816-38.083 137.899 0c38.082 38.083 38.082 99.815 0 137.898-14.673 14.673-32.856 23.692-51.844 27.059l.344 42.622 1.729-.025c4.863-.079 8.923 3.863 9.001 8.726l1.118 74.617c.078 4.863-3.844 8.903-8.746 8.981l-27.749.412c-4.863.078-8.903-3.844-9.001-8.727l-1.098-74.597c-.098-4.883 3.844-8.942 8.727-9.001l1.423-.021zm54.154-143.889c-25.772-25.772-67.555-25.772-93.328 0-25.772 25.773-25.772 67.556 0 93.328 25.773 25.772 67.556 25.772 93.328 0 25.773-25.772 25.773-67.555 0-93.328zM318.305 15.772c.934.419 1.77.998 2.543 1.77l48.653 48.654a8.413 8.413 0 0 1 1.77 2.542H322.65c-2.382 0-4.345-1.963-4.345-4.344zm20.928 429.002h-290.1c-4.794 0-8.688-3.893-8.688-8.656V23.688c0-4.794 3.894-8.688 8.688-8.688h253.191c-.012.256-.019.514-.019.772v48.622c0 11.151 9.193 20.344 20.345 20.344h48.621c.258 0 .516-.006.772-.019v65.427c-29.048 0-58.097 11.083-80.263 33.249-44.331 44.332-44.331 116.194 0 160.526 16.186 16.186 36.041 26.462 56.887 30.829l.138 16.82c-6.207 4.624-10.202 12.071-10.056 20.365l.484 32.839zM73.967 298.01h166.37c4.415 0 8-3.585 8-8 0-4.416-3.585-8-8-8H73.967c-4.415 0-8 3.584-8 8 0 4.415 3.585 8 8 8zm81.119 71.729h130.238c4.415 0 8-3.585 8-8 0-4.416-3.585-8-8-8H155.086c-4.416 0-8 3.584-8 8 0 4.415 3.584 8 8 8zm19.715-217.327c12.45-11.092 20.29-27.247 20.29-45.235 0-33.451-27.111-60.562-60.562-60.562s-60.562 27.111-60.562 60.562c0 17.988 7.84 34.143 20.29 45.235 5.455-17.045 21.427-29.388 40.272-29.388 18.846 0 34.817 12.343 40.272 29.388zm-40.272-39.388c-11.767 0-21.388-9.621-21.388-21.388s9.621-21.388 21.388-21.388 21.388 9.621 21.388 21.388-9.621 21.388-21.388 21.388zm92.444-23.001h56.21c4.415 0 8-3.585 8-8 0-4.416-3.585-8-8-8h-56.21c-4.415 0-8 3.584-8 8 0 4.415 3.585 8 8 8zm0 50.308H336.81c4.415 0 8-3.584 8-8 0-4.415-3.585-8-8-8H226.973c-4.415 0-8 3.585-8 8 0 4.416 3.585 8 8 8zm0-25.154h99.225c4.415 0 8-3.585 8-8s-3.585-8-8-8h-99.225c-4.415 0-8 3.585-8 8s3.585 8 8 8zM73.967 405.603h246.6c4.416 0 8-3.584 8-8 0-4.415-3.584-8-8-8h-246.6c-4.415 0-8 3.585-8 8 0 4.416 3.585 8 8 8zm81.119-179.323h90.976c4.415 0 8-3.584 8-8 0-4.415-3.585-8-8-8h-90.976c-4.416 0-8 3.585-8 8 0 4.416 3.584 8 8 8zm0 107.594h99.071c4.415 0 8-3.585 8-8s-3.585-8-8-8h-99.071c-4.416 0-8 3.585-8 8s3.584 8 8 8zM134.529 207.06a5.004 5.004 0 0 0-1.464-3.536 5.004 5.004 0 0 0-3.536-1.464H78.967a5 5 0 0 0-5 5v17.827a5.001 5.001 0 0 0 5 5h50.562a5.004 5.004 0 0 0 3.536-1.464 5.004 5.004 0 0 0 1.464-3.536zm0 131.851a5.002 5.002 0 0 0-5-5H78.967a4.999 4.999 0 0 0-5 5v17.828c0 1.326.527 2.598 1.465 3.535a4.997 4.997 0 0 0 3.535 1.465h50.562a5.001 5.001 0 0 0 5-5zm-60.562-76.766h163.926c4.415 0 8-3.585 8-8s-3.585-8-8-8H73.967c-4.415 0-8 3.585-8 8s3.585 8 8 8z" fill="#7fffd4" opacity="1" data-original="#000000" class=""></path></g></svg>