<?xml version="1.0" encoding="utf-8"?>
<!-- Generator: Adobe Illustrator 25.0.0, SVG Export Plug-In . SVG Version: 6.00 Build 0)  -->
<svg version="1.1" id="Layer_1" xmlns="http://www.w3.org/2000/svg" xmlns:xlink="http://www.w3.org/1999/xlink" x="0px" y="0px"
	 viewBox="0 0 512 512" style="enable-background:new 0 0 512 512;" xml:space="preserve">
<style type="text/css">
	.st0{fill:#7FFFD4;}
</style>
<g>
	<path class="st0" d="M68.2,297h44.2c6.1,0,11,4.9,11,11v110.5c0,6.1-4.9,11-11,11H68.2c-6.1,0-11-4.9-11-11V308.1
		C57.2,302,62.1,297,68.2,297z M178.7,208.6h44.2c6.1,0,11,4.9,11,11v198.8c0,6.1-4.9,11-11,11h-44.2c-6.1,0-11-4.9-11-11V219.7
		C167.6,213.6,172.6,208.6,178.7,208.6z M289.1,252.8h44.2c6.1,0,11,4.9,11,11v154.6c0,6.1-4.9,11-11,11h-44.2c-6.1,0-11-4.9-11-11
		V263.9C278.1,257.8,283,252.8,289.1,252.8z M399.6,186.5h44.2c6.1,0,11,4.9,11,11v220.9c0,6.1-4.9,11-11,11h-44.2
		c-6.1,0-11-4.9-11-11V197.6C388.5,191.5,393.5,186.5,399.6,186.5z"/>
	<path class="st0" d="M421.7,54c-18.3,0-33.1,14.8-33.1,33.1c0,3.6,0.7,7.2,1.9,10.6l-55.3,32.9c-12.4-13.2-33.2-13.8-46.4-1.4
		c-2.6,2.4-4.8,5.3-6.5,8.4l-48.8-24.2c0.2-1.4,0.4-2.9,0.4-4.3c0-18.3-14.8-33.2-33.1-33.2c-8.8,0-17.3,3.5-23.5,9.7
		c-9.5,9.5-12.3,23.7-7.2,36.1l-63.3,47.2c-5-3-10.7-4.6-16.6-4.6c-18.3,0-33.1,14.8-33.1,33.1c0,18.3,14.8,33.1,33.1,33.1
		s33.1-14.8,33.1-33.1c0-4-0.8-7.9-2.2-11.6l63.9-47.7c12.5,7,28.1,4.9,38.4-5l55.5,27.5c3.7,16.5,19.2,27.5,36,25.7
		c16.8-1.9,29.5-16.1,29.4-32.9c0-0.8-0.2-1.6-0.2-2.5l60.1-35.8c5.2,3.3,11.3,5.1,17.4,5.1c18.3,0,33.1-14.8,33.1-33.1
		S440,54,421.7,54z"/>
</g>
</svg>
