<?xml version="1.0" encoding="utf-8"?>
<!-- Generator: Adobe Illustrator 25.0.0, SVG Export Plug-In . SVG Version: 6.00 Build 0)  -->
<svg version="1.1" id="Capa_1" xmlns="http://www.w3.org/2000/svg" xmlns:xlink="http://www.w3.org/1999/xlink" x="0px" y="0px"
	 viewBox="0 0 800 800" style="enable-background:new 0 0 800 800;" xml:space="preserve">
<style type="text/css">
	.st0{fill:#7FFFD4;}
</style>
<g>
	<path class="st0" d="M430.8,446.8c-10.3,0.3-20.5,0.5-30.8,0.5c-10.3,0-20.6-0.2-30.8-0.5c-86.6-2.4-155.7-14.6-205.4-32.1
		c-23.4-7.9-43.4-17.2-58.8-27.8v83.9v5.9v5.9v15.2c33.6,35.1,146.2,67.4,295,67.4s261.4-32.3,295-67.4v-15.2v-5.9v-5.9V387
		c-15.6,10.7-35.7,20-59.3,27.9C586,432.3,517.1,444.5,430.8,446.8z"/>
	<path class="st0" d="M105,232.3v83.9v5.9v5.9v15.2c31.1,32.5,130.2,62.7,263,66.9c1.4,0,2.7,0.1,4.1,0.1c3.8,0.1,7.7,0.2,11.6,0.3
		c5.4,0.1,10.8,0.1,16.3,0.1s10.9,0,16.3-0.1c3.9-0.1,7.7-0.2,11.6-0.3c1.4,0,2.8-0.1,4.1-0.1c132.8-4.2,231.8-34.4,263-66.9V328
		v-5.9v-5.9v-83.9c-57.4,39.4-178.8,60.3-295,60.3S162.4,271.8,105,232.3z"/>
	<path class="st0" d="M693.4,157.4C680.2,106.7,578.3,56.6,400,56.6c-177.9,0-279.6,49.8-293.3,100.4c-1,1.7-1.7,3.6-1.7,5.8v5.9
		V190c33.5,34.9,145.3,67.2,295,67.2S661.5,225,695,190v-21.3v-5.9C695,160.8,694.3,159.1,693.4,157.4z"/>
	<path class="st0" d="M105,540.4v96.8c0,1.9,0.5,3.7,1.4,5.3C120.3,700.3,245,743.4,400,743.4c154.6,0,279.1-42.9,293.5-100.5
		c0.9-1.7,1.5-3.6,1.5-5.7v-96.7c-48.8,34.3-149.3,61.3-295,61.3C254.3,601.8,153.8,574.8,105,540.4z"/>
</g>
</svg>
