<?xml version="1.0" encoding="utf-8"?>
<!-- Generator: Adobe Illustrator 25.0.0, SVG Export Plug-In . SVG Version: 6.00 Build 0)  -->
<svg version="1.1" id="Layer_1" xmlns="http://www.w3.org/2000/svg" xmlns:xlink="http://www.w3.org/1999/xlink" x="0px" y="0px"
	 viewBox="0 0 512 512" style="enable-background:new 0 0 512 512;" xml:space="preserve">
<style type="text/css">
	.st0{fill-rule:evenodd;clip-rule:evenodd;fill:#7FFFD4;}
</style>
<g>
	<path class="st0" d="M115.7,108.2l44.6-53.6L46.8,99.7L6.4,165l69.2-27.7c-0.2-1.3-0.3-2.5-0.3-3.9c0-15.5,12.6-28.1,28.1-28.1
		C107.8,105.3,112,106.4,115.7,108.2z M422.8,245.3c-8.1,0-14.6,6.6-14.6,14.6c0,8.1,6.6,14.6,14.6,14.6c8.1,0,14.6-6.6,14.6-14.6
		C437.4,251.8,430.9,245.3,422.8,245.3L422.8,245.3z M330.5,253.8c0-8.1-6.6-14.6-14.6-14.6c-8.1,0-14.6,6.6-14.6,14.6
		c0,8.1,6.6,14.6,14.6,14.6C323.9,268.4,330.5,261.8,330.5,253.8L330.5,253.8z M407.5,236.3l-28-80.7c-0.8,0.1-1.7,0.1-2.6,0.1
		c-2,0-3.9-0.2-5.8-0.6l-37.2,77c4.9,4.1,8.4,9.9,9.7,16.4l52.4,3C397.9,245.3,402,239.9,407.5,236.3L407.5,236.3z M391.5,127.6
		c0-8.1-6.6-14.6-14.6-14.6c-8.1,0-14.6,6.6-14.6,14.6c0,8.1,6.6,14.6,14.6,14.6C384.9,142.2,391.5,135.7,391.5,127.6z M402.6,116.3
		c-4.4-9.9-14.3-16.8-25.7-16.8c-5.3,0-10.3,1.5-14.6,4.1l-43.4-43.1l133.4,47.1L402.6,116.3z M438.2,236.3
		c-5.3-3.5-11.6-5.1-18-4.5l-28-80.7c7.2-4.7,12.1-12.6,12.7-21.6l69.8-12.2l27,59.9L438.2,236.3z M445.6,276.4l19,22.5l47.4-34.4
		l-7.4-71.5l-57.2,53.2c2.3,4,3.5,8.7,3.5,13.6C450.9,266,448.9,271.7,445.6,276.4z M454.2,323.4l-47.8,35.8l43.1-5.7L454.2,323.4z
		 M335.2,274.1c3.4-3.3,6.1-7.4,7.5-12.1l52.4,3c2.4,13,13.9,22.9,27.6,22.9c4.5,0,8.7-1.1,12.4-2.9l18.4,21.8l-70,52.4L335.2,274.1
		z M326.3,285.7l8.5,75.4l39.7,85.7l0.4-75.7L326.3,285.7z M271.4,326.5l48.6,24.7l-7.8-69.6c-2.4-0.3-4.7-0.9-6.9-1.8L271.4,326.5z
		 M267.8,339.8l-0.7,27.4l94.3,83.4L323,367.9L267.8,339.8z M254.4,333.6l-97-35.9c-0.4,1-0.9,1.9-1.4,2.8l20,59.7l77.6,2.1
		L254.4,333.6z M290.3,265.3c1.1,2.4,2.5,4.5,4.1,6.5l-35.5,49l-89.6-33.1L290.3,265.3z M218.6,179.1l-60.8,96.9l130.1-24
		c0.3-5.3,2.1-10.3,5-14.4l-52.6-60.2c-4,2.1-8.4,3.1-12.9,3.1C224.3,180.5,221.3,180,218.6,179.1L218.6,179.1z M131.6,271.9
		c-8.1,0-14.6,6.6-14.6,14.6c0,8.1,6.6,14.6,14.6,14.6c8.1,0,14.6-6.6,14.6-14.6C146.2,278.4,139.7,271.9,131.6,271.9z M103.5,148.1
		c-8.1,0-14.6-6.6-14.6-14.6c0-8.1,6.6-14.6,14.6-14.6c8.1,0,14.6,6.6,14.6,14.6C118.1,141.5,111.5,148.1,103.5,148.1z M227.3,167
		c8.1,0,14.6-6.6,14.6-14.6c0-8.1-6.6-14.6-14.6-14.6c-8.1,0-14.6,6.6-14.6,14.6C212.7,160.5,219.3,167,227.3,167z M351,138.8
		c1.8,4.1,4.5,7.7,7.9,10.5l-37.2,77c-6.3-1.3-12.9-0.5-18.7,2.5l-52.6-60.2c2.9-4.1,4.6-8.9,5-13.9L351,138.8z M192.6,45.8l31,78.7
		c1.2-0.2,2.5-0.2,3.7-0.2c11.6,0,21.5,7,25.8,17l95.7-15.9c0.3-4.4,1.7-8.6,3.9-12.2l-62.9-62.5L192.6,45.8z M131.4,130.9
		c-0.5-5.2-2.4-10.1-5.3-14.1l54.3-65.2l30.7,77.9c-4.3,3.1-7.6,7.2-9.7,12.1L131.4,130.9z M113.7,159.7c7.1-2.8,12.8-8.3,15.8-15.4
		l69.9,10.7c0.6,6.4,3.3,12.4,7.8,17L149,264.5c-4.7-3.8-10.5-5.9-16.6-6.1L113.7,159.7z M103.6,282L6,201l34.5,86.2L103.6,282z
		 M100.2,161.4l19,99.8c-3.8,1.9-7.2,4.6-9.9,8L2.9,180.9l77.7-31C85.1,156.1,92.2,160.5,100.2,161.4z"/>
</g>
</svg>
