<?xml version="1.0" encoding="utf-8"?>
<!-- Generator: Adobe Illustrator 25.0.0, SVG Export Plug-In . SVG Version: 6.00 Build 0)  -->
<svg version="1.1" id="Layer_1" xmlns="http://www.w3.org/2000/svg" xmlns:xlink="http://www.w3.org/1999/xlink" x="0px" y="0px"
	 viewBox="0 0 800 800" style="enable-background:new 0 0 800 800;" xml:space="preserve">
<style type="text/css">
	.st0{fill:#7FFFD4;stroke:#7FFFD4;stroke-width:59.375;stroke-miterlimit:6.25;}
	.st1{fill:#7FFFD4;stroke:#7FFFD4;stroke-width:1.5625;stroke-miterlimit:6.25;}
</style>
<g id="SVGRepo_bgCarrier">
</g>
<g id="SVGRepo_tracerCarrier">
</g>
<path class="st0" d="M452.7,347.2h82.9 M354.1,347.2H437 M257.4,347.2h82.9 M160.7,347.2h80.9 M62.1,347.2H145 M160.7,256.4h80.9
	 M257.4,256.4h82.9 M354.1,256.4H437 M354.1,165.7H437"/>
<path class="st1" d="M800,351.1c0,0-35.5-33.5-108.5-21.7c-7.9-57.2-69.1-90.8-69.1-90.8s-57.2,69.1-15.8,146
	c-11.8,5.9-31.6,13.8-61.2,13.8H2.9C-7,436-7,684.6,265.3,684.6c195.3,0,341.3-90.8,410.4-256.5C778.3,436,800,351.1,800,351.1"/>
</svg>
