<?xml version="1.0" encoding="utf-8"?>
<!-- Generator: Adobe Illustrator 25.0.0, SVG Export Plug-In . SVG Version: 6.00 Build 0)  -->
<svg version="1.1" id="Layer_1" xmlns="http://www.w3.org/2000/svg" xmlns:xlink="http://www.w3.org/1999/xlink" x="0px" y="0px"
	 viewBox="0 0 800 800" style="enable-background:new 0 0 800 800;" xml:space="preserve">
<style type="text/css">
	.st0{fill-rule:evenodd;clip-rule:evenodd;fill:#7FFFD4;stroke:#7FFFD4;stroke-width:4.1667;stroke-miterlimit:16.6667;}
	.st1{fill:none;stroke:#7FFFD4;stroke-width:50;stroke-miterlimit:41.6667;}
	.st2{fill:#7FFFD4;stroke:#7FFFD4;stroke-width:4.1667;stroke-miterlimit:16.6667;}
</style>
<g id="SVGRepo_bgCarrier">
</g>
<g id="SVGRepo_tracerCarrier">
</g>
<g>
	<path class="st0" d="M185.1,628.4c10.9-11.8,29.3-12.4,41.1-1.5c0,0,0,0,0,0l33.5,31.4c10.9,11.8,10.2,30.2-1.6,41.1
		c-10.6,9.8-26.8,10.4-38,1.3l-33.5-31.3C174.9,658.5,174.2,640.2,185.1,628.4L185.1,628.4z M616.7,628.4
		c-10.9-11.8-29.3-12.4-41.1-1.5c0,0,0,0,0,0l-33.5,31.3c-11.6,11.1-12,29.6-0.8,41.2c10.9,11.3,28.8,12,40.5,1.5l33.5-31.3
		C627,658.6,627.6,640.2,616.7,628.4L616.7,628.4z"/>
	<path class="st1" d="M737.2,235.2l-111.7,27.8v-95.2c0-41.8-33.9-75.8-75.7-75.8c-10.1,0-20.2,2-29.5,6
		c-57.5,24.4-97,36.6-118.5,36.6c-21.5,0-61.6-12.4-120.3-37.2c-38.6-16.3-83,1.8-99.3,40.3c-3.9,9.3-6,19.3-6,29.5v96.2L62.8,235.2
		c-14.3-3.6-28.7,5.1-32.3,19.3c-0.7,2.7-0.9,5.5-0.7,8.3c6.4,86.3,66.7,159.1,150.3,181.5c23.6,121.9,141.5,201.6,263.4,178.1
		c90.3-17.5,160.9-88.2,178.2-178.6c82.7-23,142.1-95.4,148.5-181c1-14.7-10-27.4-24.7-28.4C742.7,234.3,739.9,234.5,737.2,235.2
		L737.2,235.2z"/>
	<path class="st2" d="M300.4,237.9L300.4,237.9c16.1,0,29.1,13,29.1,29.1v34.8c0,16.1-13,29.1-29.1,29.1l0,0
		c-16.1,0-29.1-13-29.1-29.1V267C271.3,250.9,284.3,237.9,300.4,237.9z"/>
	<path class="st2" d="M499.6,237.9L499.6,237.9c16.1,0,29.1,13,29.1,29.1v34.8c0,16.1-13,29.1-29.1,29.1l0,0
		c-16.1,0-29.1-13-29.1-29.1V267C470.5,250.9,483.5,237.9,499.6,237.9z"/>
	<path class="st2" d="M357.2,348.4c4.7-21.3,23.9-36.2,45.8-35.4c21,0.1,39.1,14.9,43.3,35.4v1.6c0,1.3-0.4,1.8-1.6,1.7l-41.7,7.6
		h-2.5l-41.7-7.5c-1.2,0-1.6-0.4-1.6-1.7V348.4z"/>
</g>
</svg>
