<?xml version="1.0" encoding="utf-8"?>
<!-- Generator: Adobe Illustrator 25.0.0, SVG Export Plug-In . SVG Version: 6.00 Build 0)  -->
<svg version="1.1" id="Layer_1" xmlns="http://www.w3.org/2000/svg" xmlns:xlink="http://www.w3.org/1999/xlink" x="0px" y="0px"
	 viewBox="0 0 64 64" style="enable-background:new 0 0 64 64;" xml:space="preserve">
<style type="text/css">
	.st0{fill:#7FFFD4;}
</style>
<path class="st0" d="M19.1,53.7c-2.4-1.9-5-3.8-6.8-6.3C8.6,42.8,5.7,37.6,3.7,32c-1.2-3.6-1.6-7.5-3.1-11c-1.6-2.5,0.3-5.3,3-6.1
	c1.2-0.2,3.4-1.4,0.8-0.6c-2.3,1.7-2.6-1.6-0.2-1.8c1.6-0.2,2.2-1.6,1.7-2.8c-1.8-1.1,4.3-2.4,1.2-4.1C4,2.3,11.6,1.7,9.7,5.5
	c-0.4,3,5.3-0.5,4,2.9c1.4,1.6,5.1,0.4,5,2.7c2,0.1,2.6,1.8,4.5,1.9c1.9,0.9,5.4,1.5,6,3.7c-1.9,1.5-6.3-3.1-6.5,1.1
	c0.6,6.2,0.4,12.5,2.7,18.4c1.1,3.5,3.6,6.3,6,9.1c2.2,2.7,5.3,4.6,8.3,6.2c2.7,1.3,5.6,2.1,8.6,2.7c1.2-0.9,3.3-4.3,5.2-2.9
	c0.1,1.6-3.7,3.4-0.2,3.2c2.1-0.6,3.5,1.6,5.2-0.4c1.6,1.9,6.5-1.2,5.4,2.6c-1.5,1-3.7,0.4-5.2,1.7c-2.5-1.2-4.5,1.1-7.2,0.8
	c-3.1,0.5-6.2,0.8-9.3,0.8c-5.1-0.4-10.3-0.6-15.2-2.3C24.2,56.9,21.5,55.3,19.1,53.7L19.1,53.7z M23.4,55.6
	c2.7,1.2,5.3,2.4,8.2,2.7c4.6,0.6,9.4,1.6,14.1,0.7c-2.1-1-4.3,0.4-6.4-0.7c-2.5,0.5-5.2-0.1-7.8-0.5c-2.9-1.3-6.1-2.2-8.8-3.9
	c-3.4-1.2,1.8,1.6,2.7,1.8c2.1,1.2-2.3-0.6-3-1.1c-1.8-1-2-0.8-0.2,0.2L23.4,55.6L23.4,55.6z M18.4,52c2.6,1,0-1.8-1.2-1.7
	c-0.5-0.9-2-1.5-1-2c-1.9,0.7-2-2.5-2.9-2c-2-0.6-0.8-2.9-3.1-4.2c-0.2-1.4-2.4-2.7-3-4.9c-0.3-1.1-2.4-4.3-1.1-1.3
	c1.1,2.9,3,5.3,4.7,7.8c1.3,2.3,2.7,4.8,5,6.2C16.5,50.7,17.3,51.8,18.4,52L18.4,52z M10.9,43.8C11,43.5,11.4,44.7,10.9,43.8z
	 M21.4,53.2C22,52.9,20.6,52.8,21.4,53.2z M22.8,53.7C22.7,53,22.2,54.1,22.8,53.7z M24.6,54.4C25.4,53.6,23.3,53.9,24.6,54.4z
	 M27.6,56.1C28.1,55.3,26,55.8,27.6,56.1z M21.8,52.1C23.1,51.2,20.2,52.1,21.8,52.1z M23.2,52.7C23.1,52.3,22.7,52.9,23.2,52.7z
	 M29.7,56.8c1.1,0.7,6.2,1.5,3,0.3C32.2,57.2,26.8,55.6,29.7,56.8z M19.3,48.7C19.2,48.2,17.6,48.2,19.3,48.7z M22.4,50.5
	C23.2,49.9,20.7,50,22.4,50.5z M25,52.1C26.1,51.6,23.1,51.6,25,52.1z M18,47.3c1.2,1,5,0.1,1.9-0.6c-1.4-0.8-4.6-1.3-2.4,0.5
	L18,47.3L18,47.3z M26.7,52.6C27.2,51.7,24.5,52.1,26.7,52.6z M24.1,50.5c3,0.9-2.6-1.9-0.8-0.3l0.4,0.2L24.1,50.5L24.1,50.5z
	 M29.3,53.6C32.2,53.6,26.7,53.2,29.3,53.6z M16.9,45.7C16.8,45.1,16.2,45.7,16.9,45.7z M34.2,56.3C34.3,55.3,33.2,57,34.2,56.3z
	 M21.8,48.7C21.7,48.2,20.9,48.6,21.8,48.7z M17.2,45.3C18.9,45.2,14.9,44.6,17.2,45.3z M11.7,41.8C11.5,41,9.9,40.4,11.7,41.8z
	 M26.1,50.9C25.8,50.6,26,51,26.1,50.9z M35.1,56.4C35.1,55.9,34.6,56.6,35.1,56.4z M25.3,50.1C25.5,49.4,23.9,49.9,25.3,50.1z
	 M18.7,45.9C19.9,45.7,16.7,45,18.7,45.9z M30,52.9C31.9,52.1,28.1,52.5,30,52.9z M24.1,48.9c2.2,0.3-2.6-1.5-0.5-0.2L24.1,48.9z
	 M31.8,53.6c2.1-1.2,1.4,2.9,3.5,0.3c2.1-1.5-1.8,1.9,0.8,0.3c1.9-1.2,4.6,0.6,6.3,1.2c1.2-0.1,2.5,1.1,3.7,0.4
	c2.5-0.7-4.8-1-2.9-2.2c-2.3,0.7-3.9-0.8-5-2.2c-2.5-0.6-5.4-1.9-6.7-4.1c-0.5-0.8,0.7,0.1-0.4-1.3c-1.5-1.4-2.3-2.9-3.3-4.5
	c-1.2-0.7-1.4-2.6-1.5-0.1c0-1.6-1.5-2.6-1.8-2.2c0-1.5,1.6-0.8,0.5-1.9c-0.2-1.6-1-3.2-1.3-5c-0.4-0.9-0.1-2.7-1.3-0.8
	c-0.4,2.1-0.1-2.5,0.5-1c0.9-1.5-0.3-1.4-0.4-1.1c0.6-1.3,0.4-3.1-0.2-2.4c0.3-1.4,0.5-5.1-0.5-4.4c0.6-1.4,1.1-6.6-1.4-4.6
	c-1,0-2.8,0.4-3.6,0.8c2.6,1.4-0.3,0.5-1.3,0.3c-0.1,1.3-1.2,0.8-2.5,0.8c2.1,0.3-1,2.2-2.2,1.4c-1.6,0.8,1.4,2.6,0,3.2
	c0.2,0.9-2.4-0.3-2.2,1.7c-1.5-0.6-0.2,2.4,0.6,1.4c2.6,0.7,1.8,2.3,1.9,3.8c-0.4,0.9-2.1-2.1-0.4-2c-1.4-2.2-1.5-0.8-2.6,0.2
	c-0.3,0.1,2.9,1.5,0.9,2.1c1.7,0.3,1.8,1.8,2.1,2.7c1,1.1,0.8-1.2,2.1,0.1c-0.8-1.2-4.2-3.3-1.4-2.6c0-1.2-0.5-2.1,0.3-2.1
	c0.8-1.5-0.9,3.7,1,1.8c0.5-0.2,0.6-1.5,1.6,0.1c1.3,1.3,0.5,2.3-1.4,1.1c0.3,1.2,2.5,1.6,2.1,3.4c0.4,1.6,1.1,1,1.6,0.9
	c0.4,1.5,0.7,0.4,0.7-0.3c1.9,0.4,1.5,1.5,2.1,2.3c1.3,0.6-1.9-4.1,0.4-1.4c2.4,2.2,0.9,3.1-1.2,2.7c1.4-0.1,1.8,1.8,3.5,1.8
	c1.6,0.7,2.6,3.6-0.1,2.4c-0.9-0.8-4.2-1.9-1.5-0.3c2.5,1.1,4.4,1.8,6.8,3.3c1.7,1.2,2.4,2.6,3.1,2.9c-1.4,0.7-4.3-0.5-2.2-0.9
	c-1.3-0.2-2.8-0.9-1.6,0.7c1.1,0.9,3.9,0.8,4.4,0.9c-0.4,0.9-1.1,1,0,1.1C29.9,53.1,31.6,53.2,31.8,53.6L31.8,53.6z M29.1,46.1
	c-0.8-0.8-1-2.4-0.1-1C29.4,45.3,30.4,47.6,29.1,46.1z M37.7,51.6C38.2,51.6,37.8,52,37.7,51.6z M27.9,44.1
	C27.8,42.8,28.1,45,27.9,44.1z M27,42.9C26,41,28.2,43.5,27,42.9z M16.6,35.7C17.2,35.6,16.9,36.7,16.6,35.7z M24.9,40.2
	C25.2,38.9,25.3,41.4,24.9,40.2z M19,36.2C18.6,35.4,19.9,36.9,19,36.2z M24,37.8c-0.9-2.1,0.7-1.2,0.2,0.3L24,37.8z M15.4,32
	c-0.4-0.7-1.1-2.7-0.9-3.3c0.2,1,2.1,4.3,1,1.4c-1.3-2.5,1.6,0.8,1.9,1.4c0.1,0.6-0.8-0.2-0.2,1.3C16,31.1,16.5,33.7,15.4,32
	L15.4,32z M12.7,30.1C12.8,28.5,13.3,31.2,12.7,30.1z M13.9,30.6C14.5,29.4,14.9,32.3,13.9,30.6z M11,28.4c-1-1-1.7-1.9,0-0.6
	c0.7,0-1.5-2.1,0.2-0.7C13,27.4,12.1,30,11,28.4L11,28.4z M12.5,28.3C13.1,27.8,12.8,28.9,12.5,28.3z M13.5,28.6
	C12.6,27,14.5,29.3,13.5,28.6z M11.6,26.8c-2.9-2.6,3.6,1.3,0.5,0.5L11.6,26.8z M19.9,31.7c-1.3-0.8-0.3-5.3,0.1-2.2
	c1.2-0.4-0.1,1.6,0.8,1.6C20.7,32.3,20.3,32.8,19.9,31.7L19.9,31.7z M23,33.5C23.1,32.1,23.2,34.4,23,33.5z M22.4,33
	C22.6,32.4,22.4,33.6,22.4,33z M12.2,26c-1.9-2.6,5.4,2.6,1.2,0.6C12.9,26.5,12.4,26.5,12.2,26z M18.1,29.1
	C17.9,27,18.5,29.5,18.1,29.1z M22.6,32C22.9,30.8,22.6,32.8,22.6,32z M12.5,25c1.1-0.2,4.6,1.9,1.4,0.6
	C13.5,25.2,12.7,25.4,12.5,25z M22,29.8c0.1-2.2,0.7-1.3,0,0.3L22,29.8z M13.3,24.3c0.5-0.7-1.2-3,0.2-0.8c0.6,0.5,1.8,0.8,0.8,1
	C15.9,25.9,13.9,24.8,13.3,24.3L13.3,24.3z M21.5,29.1C21.8,26.5,21.8,30.5,21.5,29.1z M12.4,21.9C12.7,21.8,12.5,22.4,12.4,21.9z
	 M14.5,23.2C15,22,15.5,24.5,14.5,23.2z M20.5,26.6C20.5,26.1,20.6,27.2,20.5,26.6z M20.2,25.8C19.3,23.7,21,26.9,20.2,25.8z
	 M19.7,24.4C19.5,23.6,20.1,25.5,19.7,24.4z M20.5,23.1c-0.6-1,0.7-4.5,0.9-2.3c-0.6,1.7-0.2,2.6,0.2,0.4
	C22.4,19.4,21.4,24.6,20.5,23.1L20.5,23.1z M21.4,17.9C21.6,17.6,21.4,18.3,21.4,17.9z M19.9,46.2C19.6,45.9,20,46.4,19.9,46.2z
	 M22.9,47.7c1.6,0.4,1.6-0.3,0.1-0.5c-0.8-0.7-3.3-1.5-1.1-0.1C22.1,47.6,22.6,47.6,22.9,47.7L22.9,47.7z M17,43.9
	c0.9,0.7,3.4,1.9,1.3,0.3c0.7-0.8-1.4-1.3-0.7-1.8c-1.8-1.1-1.4-1-0.2-0.9c-2.1-0.9,0.3-0.9,0.2-1.4c-0.8-0.2-4.1-1.4-2.1,0.1
	c-1.9-1-0.5,0.4-1,0.2c-2-0.5,1.8,1.5-0.3,1c1.1,0.9,3.1,2.3,0.5,1C14.3,42.7,16.5,43.5,17,43.9L17,43.9z M20.1,45.6
	C23.9,46.8,18.3,44.2,20.1,45.6z M36,55.2C36,54.5,35.5,55.9,36,55.2z M37.6,55.9c0.9-0.8,0,1.3,1.4-0.2c0-1.1,0-1.8-1.6-0.4
	C37,55.5,36.8,56.6,37.6,55.9L37.6,55.9z M11.8,39.7C11.5,38.6,9.9,38.6,11.8,39.7z M13.5,40.8C12.8,39.8,11.2,39.8,13.5,40.8z
	 M23.4,46.8c1,0.9,4.4,0.6,1.2,0.1C24.1,46.2,21.5,46.4,23.4,46.8z M37,55.2C38.5,53.9,35.5,55.7,37,55.2z M40.1,57.3
	C40.1,56.9,39.4,57.5,40.1,57.3z M40.1,56.7C41.7,55,38.5,56.8,40.1,56.7z M7.5,36.1c-1.4-2-0.9-2.9-2.2-4.5
	c-0.3-1.2-2.3-4.1-1.1-1.1C5.3,32.2,5.7,35,7.5,36.1L7.5,36.1z M39.6,56.2C42.6,54.2,38.3,55.3,39.6,56.2z M41.9,57.1
	C43.4,55.8,40.9,56.8,41.9,57.1z M11.2,37.5C11.7,36.8,10.1,37.4,11.2,37.5z M41.4,56.5c1.5-0.9-0.3-0.8-0.3,0.1L41.4,56.5z
	 M21.5,43.9C21.4,43.3,20.7,44,21.5,43.9z M22.7,44.6C22.3,43.8,22.1,44.8,22.7,44.6z M43.7,57.1c1.9-1.4-1.1-0.3-0.4,0.3L43.7,57.1
	z M43,56.8C44.6,55.5,41.4,57.3,43,56.8z M46.7,59.2C47.7,58.5,45.5,59,46.7,59.2z M12.2,37c1.4,0.3,5.5,3.4,3.1,0.2
	c-1.2-0.4-0.5-3.4-1.8-2.9c0.9,1.4,0.7,2-1.1,1.1c-2.3-1.1-1.3,0.5-0.8,1C11,36.6,12.4,37,12.2,37L12.2,37z M5.9,32
	c0.2-1-2.3-5.6-1.2-2.3C5.1,30.4,5.1,31.7,5.9,32z M17.4,39.2C16.7,38.6,17.4,39.1,17.4,39.2z M19.2,39.6
	C19.2,38.5,17.3,39.1,19.2,39.6z M34.3,49.1C34,48.4,33.2,49.1,34.3,49.1z M35.1,49.6C35,49.2,34.7,49.7,35.1,49.6z M41.1,53.4
	C41.7,53,40.4,53.4,41.1,53.4z M9,32.8C10.7,32.2,7.3,32.4,9,32.8z M33,47.9C33,46.9,31.9,48.2,33,47.9z M8.4,31.3
	C9.4,31,7.4,31.1,8.4,31.3z M11.5,32.8C11.4,32.5,11.1,32.9,11.5,32.8z M49,55.9c1.4-0.3,4.5,0.7,5-0.4c-1.7,0-5.7-1.2-5.9,0.3
	l0.4,0.1L49,55.9L49,55.9z M12.4,33.1C12.5,32,11.6,33,12.4,33.1z M4.3,27.4C4,25.4,2.9,27.1,4.3,27.4z M6.3,27.9
	C6.3,27.3,4.5,27.3,6.3,27.9z M7.4,28.5C7.1,28.2,7.1,28.8,7.4,28.5z M14.3,32.9C14.7,32.6,13.6,32.7,14.3,32.9z M6.6,27.2
	C6.5,25.7,4.4,27,6.6,27.2z M2.7,24.7C2.6,24,2.3,24.9,2.7,24.7z M3.3,24.2C3.2,23.4,2.8,24.3,3.3,24.2z M6.5,26.2
	C7.9,25.6,4,25,6.2,26.1L6.5,26.2z M50.1,53.1C51,52.3,49,52.8,50.1,53.1z M55.3,55.8C55.7,54.8,54.5,55.9,55.3,55.8z M6.9,24.5
	C7,23.5,5.8,24.7,6.9,24.5z M2.2,21.4C2,19.9,2,17.4,4.4,18.3c-3.2,0.6,2.2,3.9,1.5,1.3c1.3,0.1,2.6-0.8,1.9,0.5
	c2.6-0.3,4.5-2.6,7-2.2c2-0.3,4.1-0.5,6.3-1.3c1.8-0.1,3.4-2,2.5-3.1c-2.4-0.2-4.9,0.1-7.5,0.6c-2.9,0.6-5.6,1.8-8.5,2.3
	c-2.9,0.4,0.6,1.1-0.2,1.2C5.8,18.1,9,18.5,7.1,19c-1.2-0.2-2.5-0.7-2-2c-2.8,0.4-5.2,1.5-3,4.3L2.2,21.4L2.2,21.4z M8.9,18
	c0.6-2.4,3.5,2,1.1,0.3C9.7,18.1,9.2,17.9,8.9,18z M9,16.8C9.9,16.1,9.5,17.2,9,16.8z M10.2,16.9c0.1-1.1,2.7,0.6,0.4,0.4L10.2,16.9
	z M11.8,16.2C12.4,15.5,12,16.8,11.8,16.2z M12.2,15.9c1-1.2,5.6-0.8,2.2-0.1C13.5,15.1,12.8,16.2,12.2,15.9z M18.2,15
	C18.1,11.8,21.2,16.2,18.2,15z M19.9,15c0.6-1.6,2.4-0.7,0.3-0.3C20.3,14.8,20.2,15.5,19.9,15z M6.2,23.7
	C8.1,22.5,4.2,22.7,6.2,23.7z M7.6,24.1C8.2,23.4,6.2,23.8,7.6,24.1z M3.5,21.1C4.6,20.3,2.3,20.8,3.5,21.1z M58.5,55.5
	C58.5,54.6,57.6,55.9,58.5,55.5z M52.9,51.7C53,50.6,52.2,51.8,52.9,51.7z M60,55.9c1.5,0,4.5-0.5,1.3-0.5
	C60.8,55.5,58.3,55.5,60,55.9z M8.8,23.3c1.2-0.1,1.9-1.3-0.2-1.3c-3.3-0.3,2.9,1.1-0.4,0.7C7.7,23.1,8.8,23.4,8.8,23.3L8.8,23.3z
	 M9.8,23.9C9.7,23.1,9.5,24.3,9.8,23.9z M11.1,20.5C11.6,19.9,10.4,20.4,11.1,20.5z M7.1,13.8c2.1-0.7,5.1-1.6,6.1,0.4
	c-1-1.2-0.4-2.5,0.6-0.6c1.4,1.8,2.1-0.8,1.2-1.5c1,1.3,2.2,1.9,0.7,0.1c1.6-2-3.3,0.3-4.4,0.2C10.7,12.7,5.7,13.7,7.1,13.8
	L7.1,13.8z M8.4,11.4c1.2-0.9,4.2,0.6,2.3-0.9C10.5,10.3,6.4,11.6,8.4,11.4z M12.8,11.6c1.4,0-0.6-1.9,1.1-1c-0.3-0.9-2-1.1-2.8-1.5
	C10.6,10,12,11.6,12.8,11.6L12.8,11.6z M9.1,7.6C9.6,6.9,8.3,7.9,9.1,7.6z M11,8c2.3-0.3-0.6-1-0.5,0L11,8z M7.6,5.3
	C5.9,3.2,10.6,5.7,9,3.5C7.6,2.4,6.2,4.7,7.6,5.3z M28.4,16.6c0.7-1.3-3.1-1.8-0.5-0.5C28.2,16.2,28.1,16.7,28.4,16.6z"/>
</svg>
