<svg xmlns="http://www.w3.org/2000/svg" version="1.1" xmlns:xlink="http://www.w3.org/1999/xlink" width="512" height="512" x="0" y="0" viewBox="0 0 24 24" style="enable-background:new 0 0 512 512" xml:space="preserve" fill-rule="evenodd" class=""><g><path d="M18.75 8A2.75 2.75 0 0 0 16 5.25H8A2.75 2.75 0 0 0 5.25 8v8A2.75 2.75 0 0 0 8 18.75h8A2.75 2.75 0 0 0 18.75 16zM14 10v4a.75.75 0 0 0 1.5 0v-4a.75.75 0 0 0-1.5 0zm-1 4v-3a1.75 1.75 0 0 0-1.75-1.75h-1A1.75 1.75 0 0 0 8.5 11v3a.75.75 0 0 0 1.5 0v-.75h1.5V14a.75.75 0 0 0 1.5 0zm-3-2.25h1.5V11a.25.25 0 0 0-.25-.25h-1A.25.25 0 0 0 10 11z" fill="#7fffd4" opacity="1" data-original="#000000" class=""></path><path d="M18 12.75h4a.75.75 0 0 0 0-1.5h-4a.75.75 0 0 0 0 1.5zM12.75 6V2a.75.75 0 0 0-1.5 0v4a.75.75 0 0 0 1.5 0zM11.25 18v4a.75.75 0 0 0 1.5 0v-4a.75.75 0 0 0-1.5 0zM6 11.25H2a.75.75 0 0 0 0 1.5h4a.75.75 0 0 0 0-1.5zM18 9.75h2.5a.75.75 0 0 0 0-1.5H18a.75.75 0 0 0 0 1.5zM9.75 6V3.5a.75.75 0 0 0-1.5 0V6a.75.75 0 0 0 1.5 0zM8.25 18v2.5a.75.75 0 0 0 1.5 0V18a.75.75 0 0 0-1.5 0zM6 8.25H3.5a.75.75 0 0 0 0 1.5H6a.75.75 0 0 0 0-1.5zM18 15.75h2.5a.75.75 0 0 0 0-1.5H18a.75.75 0 0 0 0 1.5zM15.75 6V3.5a.75.75 0 0 0-1.5 0V6a.75.75 0 0 0 1.5 0zM14.25 18v2.5a.75.75 0 0 0 1.5 0V18a.75.75 0 0 0-1.5 0zM6 14.25H3.5a.75.75 0 0 0 0 1.5H6a.75.75 0 0 0 0-1.5z" fill="#7fffd4" opacity="1" data-original="#000000" class=""></path></g></svg>