<?xml version="1.0" encoding="utf-8"?>
<!-- Generator: Adobe Illustrator 25.0.0, SVG Export Plug-In . SVG Version: 6.00 Build 0)  -->
<svg version="1.1" id="Layer_1" xmlns="http://www.w3.org/2000/svg" xmlns:xlink="http://www.w3.org/1999/xlink" x="0px" y="0px"
	 viewBox="0 0 512 512" style="enable-background:new 0 0 512 512;" xml:space="preserve">
<style type="text/css">
	.st0{fill:#7FFFD4;}
</style>
<g>
	<g>
		<path class="st0" d="M256,10C120.1,10,10,120.1,10,256s110.1,246,246,246s246-110.1,246-246S391.9,10,256,10z M243.1,220.4
			c-3.5,1.2-7,2.2-10.6,3c1.4,3.7,2.1,7.6,2.2,11.5c0,23.2-14.1,40.9-36.6,45.3c-6.8,1.4-10.6,4.3-10.6,11.7
			c0,21,54.7,6.8,54.7,45.3c0,31.5-21,41.8-49.2,41.8c-23.1,0-49.6-7.9-49.6-36.2c0-16.4,9.7-25.9,24.5-30.8v-0.6
			c-13.6-8.3-10.7-31.6-0.6-36.1v-0.6c-13.7-4.7-22.5-23.7-22.5-37.6c0-37.3,39.6-55,68.8-38c10.2-0.3,20.2-2.5,29.5-6.5
			L243.1,220.4z M286.3,313.6h-30.1c0.9-9.9,1-111.5,0-119.6h30.1C285.3,202.1,285.4,303.8,286.3,313.6z M271.3,173
			c-11-0.6-19.5-10.1-18.9-21.1c0.6-10.2,8.7-18.3,18.9-18.9c10.7,0,18.3,9.7,18.3,20.1S281.9,173,271.3,173z M368.7,310.1
			c-7.7,3.8-16.1,5.6-24.7,5.3c-29.1,0-32.4-23.1-32.4-47v-48h0.3v-0.6c-4.3-0.5-8.7-0.3-12.9,0.6v-26.3H312
			c0.4-7.6,0.1-15.1-0.8-22.7h30.8c-0.8,7.5-1.1,15.1-0.8,22.7h27.6v26.3c0,0-10.5-0.6-27.6-0.6v49.9c0,8.1,1.8,18,11.8,18
			c5.6,0,11.1-1.5,15.9-4.6L368.7,310.1z M170.7,341.4c0,12.4,14.1,13.9,23.5,13.9c9.9,0,20.4-2.5,20.4-14.4
			c0-11.9-12.9-13.7-22.3-13.7C182.9,327.1,170.8,329.2,170.7,341.4z M173.6,237.5c0,11.4,5,18.5,17,18.5c11.9,0,16.2-7.7,16.2-18.8
			C206.7,210.7,173.6,210.4,173.6,237.5z"/>
	</g>
</g>
</svg>
