<?xml version="1.0" encoding="utf-8"?>
<!-- Generator: Adobe Illustrator 25.0.0, SVG Export Plug-In . SVG Version: 6.00 Build 0)  -->
<svg version="1.1" id="Layer_1" xmlns="http://www.w3.org/2000/svg" xmlns:xlink="http://www.w3.org/1999/xlink" x="0px" y="0px"
	 viewBox="0 0 2500 2500" style="enable-background:new 0 0 2500 2500;" xml:space="preserve">
<style type="text/css">
	.st0{fill:none;}
	.st1{fill:#7FFFD4;}
</style>
<path class="st0" d="M0,204h2500v1726.8H0V204z"/>
<path class="st1" d="M2208.6,695.6c-62.7-108.1-833.2-554.4-958.7-554.4S353.7,586.4,291.3,695.6s-62.7,999.7,0,1108.9
	c62.7,109.1,833.2,554.3,958.6,554.3s896-445.8,958.7-554.4C2271.2,1695.8,2271.3,803.7,2208.6,695.6L2208.6,695.6z M1509.6,1935.4
	c-17.2,0-177.2-154.9-164.6-167.6c3.8-3.8,27.2-6.4,76-8c0-113.6,2.6-297.1,4-373.8c0.2-8.8-1.9-14.8-1.9-25.4h-346
	c0,30.8-2,156.8,5.9,315.7c1,19.6-6.8,25.8-24.9,25.7c-43.9-0.1-87.8-0.4-131.8-0.3c-17.7,0-25.5-6.6-24.9-26.5
	c3.9-144.9,12.8-364-0.7-921.1v-13.7c-41.9-1.5-70.9-4.2-74.7-8c-12.6-12.7,149.7-167.7,166.8-167.7c17.2,0,178.3,155,165.8,167.6
	c-3.8,3.8-34.2,6.4-72.6,8V754c-10.4,111.6-8.8,344.8-11.3,456.5h347.6c0-19.8,1.7-150.5-5.2-362.3c-0.4-14.7,4.2-22.4,18.2-22.6
	c47.9-0.3,96-0.6,143.9-0.2c15,0.1,19.8,7.4,19.5,23.3c-15.8,828.5-2.9,770.7-2.9,911c38.4,1.6,72.8,4.2,76.7,8
	C1684.9,1780.4,1526.8,1935.4,1509.6,1935.4L1509.6,1935.4z"/>
</svg>
