<svg xmlns="http://www.w3.org/2000/svg" version="1.1" xmlns:xlink="http://www.w3.org/1999/xlink" width="512" height="512" x="0" y="0" viewBox="0 0 48 48" style="enable-background:new 0 0 512 512" xml:space="preserve" class=""><g><path d="M44.7 14.708A8.611 8.611 0 0 0 29.033 12H18.967A8.611 8.611 0 0 0 3.3 14.708c-1.9 8.4-5.264 23.221 3.136 25.125 4.518 1.024 7.577-2.8 9.736-7.85.111.006.22.017.332.017a6.476 6.476 0 0 0 4.684-2h5.632a6.476 6.476 0 0 0 4.68 2c.112 0 .221-.011.332-.017 2.159 5.054 5.218 8.874 9.736 7.85 8.4-1.904 5.04-16.726 3.132-25.125zM36.5 12a1.5 1.5 0 1 1-1.5 1.5 1.5 1.5 0 0 1 1.5-1.5zm-3 3a1.5 1.5 0 1 1-1.5 1.5 1.5 1.5 0 0 1 1.5-1.5zm-22 6a1.5 1.5 0 0 1-1.5-1.5V18H8.5a1.5 1.5 0 0 1 0-3H10v-1.5a1.5 1.5 0 0 1 3 0V15h1.5a1.5 1.5 0 1 1 0 3H13v1.5a1.5 1.5 0 0 1-1.5 1.5zm5 8a3.5 3.5 0 1 1 3.5-3.5 3.5 3.5 0 0 1-3.5 3.5zm15 0a3.5 3.5 0 1 1 3.5-3.5 3.5 3.5 0 0 1-3.5 3.5zm5-8a1.5 1.5 0 1 1 1.5-1.5 1.5 1.5 0 0 1-1.5 1.5zm3-3a1.5 1.5 0 1 1 1.5-1.5 1.5 1.5 0 0 1-1.5 1.5z" fill="#7fffd4" opacity="1" data-original="#000000" class=""></path></g></svg>