<svg xmlns="http://www.w3.org/2000/svg" version="1.1" xmlns:xlink="http://www.w3.org/1999/xlink" width="512" height="512" x="0" y="0" viewBox="0 0 64 64" style="enable-background:new 0 0 512 512" xml:space="preserve" class=""><g><path d="M55.02 55.36v4.36c0 .55-.439 1-1 1H14.53c-.55 0-1-.45-1-1v-4.36c0-1.69.34-3.17 1-4.38.01-.03.029-.05.04-.08 1.09-1.94 3-3.25 5.819-3.96a.619.619 0 0 1-.05-.19c-.74-4.44 2.94-7.22 6.5-9.91 2.21-1.66 4.49-3.39 5.74-5.48.9-1.51 1.22-2.7.88-3.28-.229-.38-.79-.55-1.24-.61-.88 1.46-3.59 4.96-9.55 5.5-.99.89-1.7 1.61-2.28 2.2-1.319 1.34-2.12 2.15-3.699 2.15-1.37 0-5.311-1.01-6.96-3.53-.9-1.38-1-2.99-.271-4.66 1.91-4.38 5.98-9.41 6.99-10.62.109-1.73.92-8.99 6.43-10.25.61-3.03 1.47-4.55 2.76-4.9.99-.28 2.021.2 3.051 1.41 2.04 2.37 3.55 3.38 5.239 3.48C36 8.38 48.86 12.66 51.52 21.96c2.521 8.83 1.95 19.84-1.329 25.61-.011.02-.021.04-.04.05 1.819.77 3.119 1.91 3.92 3.44.01.03.029.06.05.09.599 1.18.899 2.59.899 4.21z" fill="#7fffd4" opacity="1" data-original="#000000" class=""></path></g></svg>