<?xml version="1.0" encoding="utf-8"?>
<!-- Generator: Adobe Illustrator 25.0.0, SVG Export Plug-In . SVG Version: 6.00 Build 0)  -->
<svg version="1.1" id="Leetcode" xmlns="http://www.w3.org/2000/svg" xmlns:xlink="http://www.w3.org/1999/xlink" x="0px" y="0px"
	 viewBox="0 0 24 24" style="enable-background:new 0 0 24 24;" xml:space="preserve">
<style type="text/css">
	.st0{fill:#7FFFD4;}
</style>
<path class="st0" d="M21.4,14.2c0-0.7-0.5-1.3-1.2-1.3h-9.5c-0.7,0-1.2,0.6-1.2,1.3c0,0.7,0.5,1.3,1.2,1.3h9.5
	C20.9,15.5,21.4,14.9,21.4,14.2z"/>
<path class="st0" d="M4,17.8L8,21.9c0.9,0.9,2.2,1.4,3.6,1.4s2.7-0.5,3.6-1.4l2.4-2.5c0.5-0.5,0.5-1.3,0-1.8c-0.5-0.5-1.3-0.5-1.8,0
	L13.3,20c-0.4,0.4-1,0.6-1.7,0.6s-1.3-0.2-1.7-0.6l-4-4.1c-0.4-0.4-0.7-1.1-0.7-1.8c0-0.7,0.2-1.3,0.7-1.7l4-4.1
	c0.4-0.4,1-0.6,1.7-0.6s1.3,0.2,1.7,0.6l2.5,2.5c0.5,0.5,1.3,0.5,1.8,0c0.5-0.5,0.5-1.3,0-1.8l-2.4-2.5c-0.6-0.6-1.4-1-2.2-1.3l0,0
	l2.3-2.4c0.5-0.5,0.5-1.3,0-1.8s-1.3-0.5-1.8,0L4,10.6c-0.9,0.9-1.4,2.2-1.4,3.6S3.1,16.9,4,17.8z"/>
</svg>
