<?xml version="1.0" encoding="utf-8"?>
<!-- Generator: Adobe Illustrator 25.0.0, SVG Export Plug-In . SVG Version: 6.00 Build 0)  -->
<svg version="1.1" id="Layer_1" xmlns="http://www.w3.org/2000/svg" xmlns:xlink="http://www.w3.org/1999/xlink" x="0px" y="0px"
	 viewBox="0 0 24 24" style="enable-background:new 0 0 24 24;" xml:space="preserve">
<style type="text/css">
	.st0{fill:#7FFFD4;}
</style>
<path class="st0" d="M11.9,2C6.4,2.1,1.9,6.6,2,12.2c0,2.2,0.8,4.3,2.1,6L7.2,16c-2.2-2.7-1.8-6.7,1-8.9c1.1-0.9,2.5-1.4,3.9-1.4
	v2.4l5.8-4.3C16.1,2.6,14,2,11.9,2z M19.9,5.8L16.8,8c2.2,2.7,1.8,6.7-1,8.9c-1.1,0.9-2.5,1.4-3.9,1.4v-2.4l-5.8,4.3
	c4.5,3.2,10.8,2.1,14-2.5C22.7,14.1,22.6,9.3,19.9,5.8z"/>
</svg>
