<?xml version="1.0" encoding="utf-8"?>
<!-- Generator: Adobe Illustrator 25.0.0, SVG Export Plug-In . SVG Version: 6.00 Build 0)  -->
<svg version="1.1" id="Layer_1" xmlns="http://www.w3.org/2000/svg" xmlns:xlink="http://www.w3.org/1999/xlink" x="0px" y="0px"
	 viewBox="0 0 48 48" style="enable-background:new 0 0 48 48;" xml:space="preserve">
<style type="text/css">
	.st0{fill:#7FFFD4;}
</style>
<g>
	<g transform="scale(5.33333,5.33333)">
		<path class="st0" d="M4.5,0.3c-2.3,0-4.2,1.9-4.2,4.2s1.9,4.2,4.2,4.2s4.2-1.9,4.2-4.2S6.8,0.3,4.5,0.3z M4.5,8.3
			c-0.6,0-1.1-0.5-1.2-1.1h2.5C5.6,7.8,5.1,8.3,4.5,8.3z M6.6,6.8H2.4V6.2h4.2V6.8z M6.5,5.8c-0.4,0-4,0-4,0C2.3,5.6,2,5,1.9,4.7
			C2.4,4.8,3.2,5,3.2,5C2.9,4.8,2.7,4.5,2.7,4.1c0-0.6,0.5-1.6,0.5-1.9c0-0.1,0-0.2-0.1-0.4c0.3,0.1,0.5,0.5,0.5,1.2
			C3.9,2.7,4,2.3,4,1.6c0-0.6,0.5-0.8,0.5-0.8C4.3,1.3,4.9,1.9,4.9,2.5c0,0.2,0,0.5,0.1,0.8c0-0.4,0-1.5,0.5-2
			C5.3,2.3,6.2,3,6.2,3.8C6.2,4.3,6,4.7,5.8,5c0,0,1.1-0.2,1.4-0.3C7,5,6.7,5.6,6.5,5.8z"/>
	</g>
</g>
</svg>
