<svg xmlns="http://www.w3.org/2000/svg" version="1.1" xmlns:xlink="http://www.w3.org/1999/xlink" width="512" height="512" x="0" y="0" viewBox="0 0 512 512" style="enable-background:new 0 0 512 512" xml:space="preserve" class=""><g><path fill-rule="evenodd" d="M162.372 175.859a6.747 6.747 0 0 1-9.54 9.54l-33.31-33.31a6.747 6.747 0 0 1 0-9.54l33.31-33.309a6.747 6.747 0 0 1 9.54 9.54l-28.539 28.539 28.539 28.539zm71.205 10.686a6.747 6.747 0 0 1-9.54-9.54l28.539-28.539-28.539-28.539a6.747 6.747 0 0 1 9.54-9.54l33.309 33.31a6.747 6.747 0 0 1 0 9.54l-33.309 33.31zm-47.716 14.783a6.739 6.739 0 0 1-13.019-3.479l27.704-103.393a6.739 6.739 0 0 1 13.019 3.479zm282.811 29.821c-40.699-15.17-107.751-15.17-148.449 0-36.338 13.545-36.338 30.939 0 44.484 40.698 15.17 107.75 15.17 148.448 0 36.338-13.545 36.338-30.94 0-44.484zM292.908 402.136v40.053c0 8.04 10.439 15.952 27.315 22.242 40.699 15.17 107.748 15.17 148.448 0 16.877-6.291 27.315-14.202 27.315-22.242v-40.053c-41.819 32.252-161.259 32.252-203.078 0zm0-85.813V276.27c41.819 32.252 161.259 32.252 203.078 0v40.053c0 8.041-10.439 15.952-27.315 22.242-40.699 15.17-107.75 15.17-148.449 0-16.876-6.29-27.315-14.202-27.315-22.242zm203.078 22.88v40.053c0 8.04-10.439 15.952-27.315 22.242-40.698 15.17-107.75 15.17-148.448 0-16.876-6.291-27.315-14.202-27.315-22.242v-40.053c41.819 32.251 161.26 32.252 203.078 0zm-184.385-21.718 3.93 1.685a6.732 6.732 0 0 0 8.829-3.558 6.732 6.732 0 0 0-3.558-8.829l-3.93-1.685a6.732 6.732 0 0 0-8.829 3.558 6.732 6.732 0 0 0 3.558 8.829zm0 63.45 3.93 1.684a6.732 6.732 0 0 0 8.829-3.558 6.732 6.732 0 0 0-3.558-8.829l-3.93-1.684a6.732 6.732 0 0 0-8.829 3.558 6.732 6.732 0 0 0 3.558 8.829zm0 63.45a6.732 6.732 0 0 1 5.271-12.387l3.93 1.685a6.732 6.732 0 0 1-5.271 12.387zm-32.187-93.745H91.884v21.43h187.531v-21.43zm-41.932-13.494c-10.724-9.102-17.984-22.043-19.711-36.546h-47.603c-1.727 14.508-8.985 27.44-19.711 36.546zm41.932-80.035H16.013v20.345c0 5.294 4.357 9.651 9.651 9.651h253.75zM16.012 243.617h265.659c4.765-10.072 16.835-18.72 33.86-25.066 14.868-5.542 33.784-9.538 54.863-11.287V45.842c0-5.293-4.356-9.651-9.651-9.651H25.665c-5.294 0-9.651 4.357-9.651 9.651v197.777z" fill="#7fffd4" opacity="1" data-original="#000000" class=""></path></g></svg>