<svg xmlns="http://www.w3.org/2000/svg" version="1.1" xmlns:xlink="http://www.w3.org/1999/xlink" width="512" height="512" x="0" y="0" viewBox="0 0 512 512" style="enable-background:new 0 0 512 512" xml:space="preserve"><g><path fill-rule="evenodd" d="M336.763 158.44a6.747 6.747 0 0 1-9.54 9.54l-35.054-35.054a6.747 6.747 0 0 1 0-9.54l35.054-35.054a6.747 6.747 0 0 1 9.54 9.54l-30.284 30.284zm74.934 10.746a6.747 6.747 0 0 1-9.54-9.54l30.284-30.284-30.284-30.284a6.747 6.747 0 0 1 9.54-9.54l35.054 35.054a6.747 6.747 0 0 1 0 9.54zm-50.306 15.716a6.739 6.739 0 0 1-13.019-3.479l29.155-108.808a6.739 6.739 0 0 1 13.019 3.479zm87.793-135.868c-44.029-44.029-115.419-44.029-159.449 0-44.029 44.029-44.029 115.419 0 159.448s115.419 44.029 159.448 0 44.03-115.419 0-159.448zm-205.947 81.71c.49 31.742 12.696 60.641 32.484 82.566-60.235 19.244-150.128 17.558-205.106-2.934-54.351-20.258-54.351-48.533 0-68.792 47.191-17.59 117.472-20.779 172.622-10.84zm-213.443 251.2v63.234c0 12.787 15.6 24.995 40.822 34.397 58.71 21.884 154.951 21.883 213.661 0 25.221-9.401 40.822-21.61 40.822-34.396v-63.234c-8.567 7.878-20.906 14.821-36.131 20.496-61.885 23.067-161.158 23.067-223.043 0-15.225-5.675-27.564-12.618-36.131-20.496zm0-116.252V202.48c8.567 7.878 20.906 14.82 36.13 20.495 59.255 22.087 156.733 23.69 220.562.925a126.195 126.195 0 0 0 38.613 23.082v18.732c0 12.787-15.6 24.995-40.821 34.396-58.709 21.883-154.953 21.883-213.663 0-25.374-9.458-40.66-21.497-40.821-34.418zm295.305 26.52v63.234c0 12.787-15.6 24.995-40.822 34.396-58.71 21.883-154.952 21.883-213.662 0-25.221-9.401-40.822-21.61-40.822-34.396v-63.234c8.566 7.878 20.905 14.821 36.13 20.496 61.884 23.067 161.16 23.067 223.044 0 15.225-5.675 27.563-12.618 36.13-20.495zM60.444 264.733l5.604 2.402a6.732 6.732 0 0 0 8.829-3.558 6.732 6.732 0 0 0-3.558-8.829l-5.604-2.402a6.73 6.73 0 1 0-5.271 12.386zm0 90.47 5.604 2.402a6.73 6.73 0 0 0 5.271-12.386l-5.604-2.402a6.731 6.731 0 0 0-5.271 12.387zm0 90.47a6.732 6.732 0 0 1 5.271-12.387l5.604 2.402a6.732 6.732 0 0 1-5.271 12.387z" fill="#7fffd4" opacity="1" data-original="#000000"></path></g></svg>