<?xml version="1.0" encoding="utf-8"?>
<!-- Generator: Adobe Illustrator 25.0.0, SVG Export Plug-In . SVG Version: 6.00 Build 0)  -->
<svg version="1.1" id="Layer_1" xmlns="http://www.w3.org/2000/svg" xmlns:xlink="http://www.w3.org/1999/xlink" x="0px" y="0px"
	 viewBox="0 0 50 50" style="enable-background:new 0 0 50 50;" xml:space="preserve">
<style type="text/css">
	.st0{fill:#7FFFD4;}
</style>
<g>
	<g transform="scale(5.12,5.12)">
		<path class="st0" d="M4.9,0C2.2,0,0,2.2,0,4.9s2.2,4.9,4.9,4.9s4.9-2.2,4.9-4.9S7.6,0,4.9,0z M7,7.1C6.9,7.2,6.8,7.2,6.7,7.2
			c-0.1,0-0.1,0-0.2-0.1C6,6.8,5.1,6.6,4.4,6.6C3.6,6.6,3,6.8,3,6.8c-0.2,0.1-0.3,0-0.4-0.2c-0.1-0.2,0-0.3,0.2-0.4
			c0,0,0.7-0.2,1.6-0.2c0.7,0,1.8,0.2,2.5,0.7C7,6.7,7,6.9,7,7.1z M7.6,5.8C7.5,5.9,7.4,5.9,7.3,5.9c-0.1,0-0.1,0-0.2-0.1
			c-1-0.6-1.9-0.7-2.8-0.7c-1,0-1.7,0.2-1.7,0.2C2.4,5.4,2.2,5.3,2.1,5.1C2.1,4.9,2.2,4.7,2.4,4.7c0.1,0,0.8-0.2,1.9-0.2
			c0.9,0,2.1,0.1,3.2,0.8C7.6,5.4,7.7,5.6,7.6,5.8z M8.2,4.2C8.1,4.4,8,4.5,7.9,4.5c-0.1,0-0.1,0-0.2-0.1C6.5,3.7,5.2,3.6,4.2,3.6
			c0,0,0,0,0,0c-1.1,0-2,0.2-2,0.2C2,3.9,1.8,3.7,1.7,3.5C1.7,3.3,1.8,3,2,3c0,0,1-0.2,2.2-0.2c0,0,0,0,0,0c1,0,2.5,0.2,3.8,0.9
			C8.3,3.8,8.3,4,8.2,4.2z"/>
	</g>
</g>
</svg>
